<?xml version="1.0" encoding="utf-8"?>
<!-- Generator: Adobe Illustrator 25.0.0, SVG Export Plug-In . SVG Version: 6.00 Build 0)  -->
<svg version="1.1" id="Camada_1" xmlns="http://www.w3.org/2000/svg" xmlns:xlink="http://www.w3.org/1999/xlink" x="0px" y="0px"
	 viewBox="0 0 1998 1200" style="enable-background:new 0 0 1998 1200;" xml:space="preserve">
<style type="text/css">
	.st0{fill:#3F250D;}
	.st1{fill:#E4BB9F;}
	.st2{fill:#60421B;}
	.st3{fill:#B28772;}
	.st4{fill:#F6D8C6;}
	.st5{fill:#F5D8C6;}
	.st6{fill:#EFC5A6;}
	.st7{fill:#ECC7B6;}
	.st8{fill:#FEFEFE;}
	.st9{fill:#241941;}
</style>
<g>
	<g>
		<path class="st0" d="M1094.8,797.5c-2.8-0.8-5.6-1.6-8.4-2.5c0.2,0.8,0.3,1.7,0.4,2.6c0.7,5.3,0.7,10.1,0.2,14.4
			c1.2-1.1,2.7-2.6,4-4.6C1093.6,803.6,1094.5,799.8,1094.8,797.5z"/>
		<g>
			<g>
				<g>
					<path class="st0" d="M1170,641.5c-0.9-25.5-28.2-51.7-54-52c-3,1.1-6,0-9-0.2c-1.5-1.2-0.8-2.8-0.7-4.2
						c0.9-12.8-2-24.7-7.8-36.1c-5.3-10.3-12.3-19.4-19.7-28.2c-15-17.7-33.4-32.4-45.4-53.3c-0.8,3.7-1.6,6.7-1.3,9.9
						c0.5,1.4,0.5,2.8,0.5,4.1c-0.1-0.5-0.3-0.9-0.7-1.4c-0.3,2.3-0.7,4.7-1.1,7.5c-9.2-5.8-16.9-12.4-22.4-21.4
						c-7.6-12.5-5.4-24.3,6.2-33.5c2-1.6,4.2-3,7.2-5.2h-6.7c-4.6,0.8-9.2,0.6-13.9,0c-31.5,1.3-58.1,13.3-80,37.3
						c-0.2-2.6-0.3-4.2-0.3-5.8c-0.1-5.3,1.6-10.3,3.8-16.4c-3.6,1.8-6.3,3-8.7,4.5c-38,23.7-63,57.1-74.9,100.2
						c-3.8,13.7-4.6,27.8-5.4,41.9c-3.2,0.3-6.4,1.2-9.6,0.2c-2,0.1-4,0.1-5.9,0.5c-32.7,6.4-53.9,36.8-47.8,69.7
						c6,32.1,26.2,55,50.9,74.6c2,1.6,2.4,0.2,3.1-1.2c3.2-6.2,6.8-12.2,11.4-17.5c0.7-0.9,1.2-2.5,3.4-1.8c-3.1,11-6.2,22-6.1,33.6
						c0.7,4.4,0.7,8.7,0,13c0.4,18.9,6.8,35.7,18.4,50.7c1.2-1.2,0.8-2.6,1-3.8c0-1.2,0.1-2.3,0.3-3.3c0-1,0.1-2.1,0.3-3.1
						c0.1-3.7,0.6-7.4,1.8-10.9c2.2-1.4,0.4-4.7,2.8-6.5c0.6,1.5,1.7,3,0.4,4.7c0,1.5-0.1,3,0.2,4.5c4.1,22.5,17.7,39,34.2,53.6
						c0.4,0.4,1.4,0.9,1.6,0.7c0.8-0.8,0.4-1.8,0.1-2.8c-1-3.4-0.4-6.9-0.4-10.3c0-0.3,0.2-0.2,0.2,0.3c0,0.1,0.3,0.2,0.4,0.3
						c1.2-3.8,0.7-8,2.8-12.5c5,14,14,24,25.1,32.2c13.6,10,28.9,16.2,45,20.8c1.5,0.4,2.9,0.3,4.4-0.2c29.5-9,56.3-21.5,70.1-53.2
						c0.4,3.4,0.8,6,1.1,8.4c0.2,0.9,0.3,1.9,0.4,2.8c0.1,0.5,0.2,1,0.2,1.5c0,0.2,0,0.3,0.1,0.5c0,0,0,0,0,0c0,0,0,0,0,0
						c0,0.3,0.1,0.6,0.1,0.9c0,0,0,0,0,0c0,0.3,0,0.6,0.1,0.9c0,0,0,0,0,0c0.7,3.6-0.2,7.4,0.1,11.6c9.5-7.9,17.5-16.4,24.1-26.2
						c6.6-9.9,11.4-20.6,12.4-32.6c-0.1-0.2-0.1-0.5-0.1-0.7c-0.2-2.4,0.1-4.8,0.2-7.2c0.1-0.4,0.1-0.7,0.2-1.1
						c0.3-0.1,0.4-0.2,0.3-0.1c0,0-0.1,0.1-0.3,0.2c-0.3,1.4,0.4,2.3,1.4,3.1c1.3,8.4,3.4,16.7,3.9,25.2c1.5-1.1,0.3,1.4,1.3,1
						c4.3-4.5,7.3-9.9,9.8-15.5c11.9-26.6,10.1-53.5,1.6-80.6c2.2-0.6,2.9,1.2,3.9,2.4c4.2,5,7.8,10.4,10.6,16.3
						c1.2,2.6,2,3.6,4.8,1.3c14.3-11.4,27-24.3,36.5-40c7.2-11.7,12.7-24.1,13.6-38.1C1169.8,650.8,1169.8,646.2,1170,641.5z"/>
					<path class="st0" d="M896.5,846.5c-0.7-0.1-1.4-0.2-2.1-0.2v-13.4c1.6-3.5,3.2-7,4.7-10.6c-0.9,3.4-1.7,7.4-2.1,11.9
						C896.5,838.8,896.4,842.9,896.5,846.5z"/>
				</g>
				<g>
					<path class="st0" d="M859.7,786.4c0.5-1.7,1-3.2,1.5-4.9c1.3,2.9,0.9,5.5-1,7.9C860,788.4,859.9,787.4,859.7,786.4z"/>
					<path class="st0" d="M842.4,764.3c-1.9,3.5-3.7,6.9-5.6,10.4c-1.1-5.3-1.9-11.8-2-19.3c-0.1-6.5,0.5-12.3,1.2-17.1
						c1.4,2.4,2.8,4.8,4.3,7.2C841,751.8,841.7,758.1,842.4,764.3z"/>
				</g>
			</g>
			<path class="st0" d="M898.4,825.2c-0.5-0.4-1.1-0.8-1.6-1.2v-1.9c0.9-0.5,1.8-0.9,2.8-1.4C899.2,822.3,898.8,823.8,898.4,825.2z"
				/>
		</g>
	</g>
	<path class="st0" d="M869.3,776.8c-0.6,0.4-1.1,0.8-1.7,1.3c-6.1,4.9-10.3,11.8-12.4,15.6c-1.5-1.3-3-2.5-4.5-3.8l14.1-16.9
		L869.3,776.8z"/>
	<path class="st0" d="M1106,588.9c-13.9-5.9-27.9-11.8-41.8-17.6l-20.1-41c4.1-2.3,11.3-7.2,16.4-16.2c10.1-17.5,3.9-35.9,2.9-38.9
		c8.4,6.9,26.2,23.5,36.5,51.2C1110.3,554.1,1107.7,578.1,1106,588.9z"/>
	<path class="st0" d="M1170,655.7c-1.5-4.7-1.6-9.3,0-14C1171,646.3,1170.9,651,1170,655.7z"/>
	<path class="st0" d="M838.2,589.4c-2.2,1.6-5.4,1.7-9.6,0.2C831.8,589,835,588.8,838.2,589.4z"/>
	<path class="st0" d="M1032.1,477c1.7,2.5,0.5,5.1,0,7.7c-0.1-1.7-0.2-3.3-0.3-5C1032,478.8,1032,477.9,1032.1,477z"/>
	<path class="st1" d="M877.8,687.6c0.3-0.6,0.4-1.3,0.8-1.8c5.2-6.6,8-13.5,2.1-21.2c-2.6-20,2.9-38.1,14.9-53.9
		c11.2-14.8,26.9-20.6,45.2-19.5c6.2,0.4,12.2,1.9,18.1,3.5c2.1,0.6,4.1,1.4,5.7,2.9c3.9,3.2,5.6,8.1,8.8,12.3
		c3-3.8,4.6-8.3,7.9-11.5c2.5-2.3,5.5-3.6,8.8-4.4c12.6-3.2,25.2-4.4,37.8,0c18.4,6.5,28.2,20.8,34.6,38.2
		c2.7,7.4,3.7,15.2,4.6,22.9c0.5,4.5-1.4,8.4-2.5,12.6c-6.1,7.2,1,12.1,3.1,17.8c3.4,13.4,0.8,26.5-2.8,39.3
		c-11.4,40.6-40.1,63.8-78.5,76.9c-3.8,1.3-7.9,0.9-11.8,1.7c-1.7,0-3.4,0-5,0c-15.9-2.2-29.8-9.1-43-17.7
		c-26.2-17.2-41.9-41.4-47.3-72.2C877.8,704.9,877.3,696.2,877.8,687.6z"/>
	<path class="st2" d="M864.8,565.1c4.3-17,12.2-30.9,22.1-45c-5.3,2-8.1,5.7-11.4,8.5c-3.4,2.9-6.6,6.1-9.8,9.3
		c-3.2,3.3-6.3,6.7-9.7,9.9c7.7-32.5,26.5-57.5,52.1-78.2c-3.8,9.6-7.6,19.2-11.4,28.8c25.1-24.7,53.7-43.5,87.7-53.5
		c-30.7,17.1-55.9,40.4-77,68.3c19.2-8.8,37.4-19,55.8-30.7c-1.4,6.6-5.2,11-8.6,15.4c-14.8,19.2-33.9,33.5-54,46.6
		C889.5,551.7,878.1,558.9,864.8,565.1z"/>
	<path class="st3" d="M974.6,803.4c17.5-4.1,33.8-11,48.3-21.6c25.7-18.6,40.5-43.7,43.9-75.5c0.7-7,0.5-13.9,0.9-20.9
		c9.4,16.2,15.4,33.3,13.4,52.2c-2.4,22.1-15.5,37.3-34.2,48.2c-16.8,9.8-35.2,14.6-54.4,16.7C986.5,803.2,980.6,803.9,974.6,803.4z
		"/>
	<path class="st4" d="M877.8,687.6c2.7,4.5,1.3,9.5,1.7,14.3c1.9,22.8,9.1,43.4,24,61.1c16.8,19.9,38.1,32.2,63.1,38.8
		c1.1,0.3,2,1.1,3,1.6c-1,0-2,0-3,0c-2.7-0.8-5.5,0.2-8.2-0.6c-21.9-1.4-42.7-6.9-61.4-18.7c-27.3-17.1-37.1-43-28.4-74
		C870.7,702.2,873.8,694.7,877.8,687.6z"/>
	<path class="st3" d="M1064.6,667.6c2.4-17.3-1.6-33.3-9.7-48.5c-10-18.8-30.3-28.9-51.3-25.9c-7.6,1.1-15,2.9-22.3,5.2
		c10.8-15.3,24.9-25.2,44.2-24.1c22.2,1.3,36.3,14.4,43.8,34.5C1076.9,628.9,1073.8,648.6,1064.6,667.6z"/>
	<path class="st4" d="M964.6,597.6c-9.7-1.8-19.2-5.4-29.3-5c-19.4,0.9-34.1,9.6-43.6,26.7c-7,12.6-10.5,26.1-10.2,40.5
		c0,1.6,0.5,3.4-0.9,4.7c-8.8-20.5-10.8-41.2-0.8-61.7c16.4-33.4,58.2-40.9,84.5-6.2C964.6,596.9,964.5,597.3,964.6,597.6z"/>
	<path class="st1" d="M1154.2,668.5c-5,12.7-13.3,23-23.5,31.8c-1.2,1.1-2.7,1.9-4.2,2.6c-4.8,2.2-8.4,0.9-9.8-4.1
		c-2.8-9.9-8.1-17.8-16.5-23.7c-1.2-0.8-2-1.5-1.1-3.2c7.5-13.5,10.6-28.2,12.3-43.4c1.1-2.1,3-2.4,5-2.6c13.9-1.2,24.5,4.2,31.8,16
		C1153.4,650.1,1155.7,658.9,1154.2,668.5z"/>
	<path class="st1" d="M835.5,622.6c0.6,17.2,3.8,33.6,12.1,48.9c1.1,2.1,0.3,2.9-1.2,3.9c-7.9,5.6-13.1,13-15.8,22.3
		c-1.9,6.6-5.9,8.1-11.7,4.3c-9.1-5.9-15.4-14.5-21.1-23.5c-1.4-9.2-2.8-18.4-0.8-27.7c1.1-5,3.3-9.4,6.9-13
		c7.9-7.8,17.8-12,28.2-15.4C833.2,622,834.4,621.9,835.5,622.6z"/>
	<path class="st2" d="M903.7,794.4c10.2,12.4,21.9,20.8,35.8,26.1c7.7,3,13.4,7.5,16.1,16.3c2.9,9.3,8.5,17.6,14.9,25.2
		c0.4,0.5,0.6,1.1,0.9,1.8C942.4,861,908.7,829,903.7,794.4z"/>
	<path class="st5" d="M835.5,622.6c-9.2,3.8-18.6,6.9-26.8,13c-7.9,6-10.7,13.9-11.1,23.3c-0.2,4.7,0.6,9.2,0.9,13.9
		c0.1,1.9,0.8,4-0.7,5.8c-18.7-29.9-2.4-62.2,33-65.8c4.2-0.4,5.9,0.5,5,4.9C835.4,619.2,835.5,620.9,835.5,622.6z"/>
	<path class="st5" d="M1154.2,668.5c-0.6-3.7-1-7.5-1.7-11.1c-3-14-9.7-25-24.4-29c-5.4-1.5-11.1-1.5-16.6,0.2
		c-0.1-3.7,0.2-7.3-0.3-10.9c-0.6-4.2,0.6-5.3,4.9-4.9c21.5,2.2,37.6,15.7,40.8,34.8C1158.2,654.8,1156.9,661.7,1154.2,668.5z"/>
	<path class="st2" d="M862.2,700.6c-2.7,11.5-5.1,23-4.7,34.9c0.1,3.4,0.1,6.9,1.6,9.7c2.6,5.1,1.6,9.8,0.2,14.8
		c-2.2,8.1-4.1,16.4-6.2,24.5C841,769.2,846.1,719.9,862.2,700.6z"/>
	<path class="st2" d="M887.6,826.3c-8.1-11-12.9-23.1-15-36.3c-0.7-4.6-1.2-9.2-0.9-13.9c0.1-1.1-0.5-2.6,1-3
		c1.3-0.4,2.1,0.9,2.8,1.8c2.9,4.3,6.6,7.8,11.1,10.5c1.2,0.7,2.1,1.6,1.9,3.2c-1.7,11.8-0.3,23.6-0.8,35.3
		C887.5,824.8,887.6,825.6,887.6,826.3z"/>
	<path class="st1" d="M958.3,802.7c2.8-0.1,5.6-0.8,8.2,0.6C963.7,803.5,961,803.7,958.3,802.7z"/>
	<path class="st0" d="M983.5,720.5c18.8-0.6,37.2-2.4,53.8-12.6c1.3-0.8,2.7-1.3,4.1-1.8c6.2-2.1,9.4,0.2,9.2,6.7
		c-0.1,3-0.2,6.1-1.4,8.8c-9.8,23.6-24.1,43.5-48.1,54.4c-26,11.7-56.7,5.7-78.2-14.8c-11.1-10.6-19.3-23.3-25.4-37.3
		c-1.6-3.7-2.3-7.7-2.1-11.7c0.3-4.8,2.9-7,7.6-6c2.1,0.4,4.2,1.1,6.1,2.2c16.9,9.8,35.5,11.7,54.4,12.2
		C970.2,719.7,976.9,719.8,983.5,720.5z"/>
	<path class="st0" d="M934.9,618.3c-8.5,4.6-11.8,10.9-10,18.7c2.4,10.9,11.1,13.7,20.5,5.8c0.4,13-1.6,24.6-11.5,33.3
		c-6.1,5.3-13.8,4.8-19.9-0.8c-5.8-5.3-8.6-12.2-9.8-19.7c-2-12.8-0.7-25,7.8-35.4C918.5,612.2,926.8,611.6,934.9,618.3z"/>
	<path class="st0" d="M996.6,640.6c0.4-7.7,3.1-14.6,8-20.5c6.5-7.8,14.7-8.5,23.2-1.7c-7.8,2.9-11,8.7-10.4,16.6
		c0.4,5.3,2.6,9.8,7.6,12c5,2.2,9-0.1,12.3-4c2.8,10.4-2.8,27.1-11.1,33.4c-6.5,4.9-14.3,4.3-20.3-1.8c-5.9-6.1-8.8-13.6-9.3-22
		C997.3,648.6,997.3,644.6,996.6,640.6z"/>
	<path class="st0" d="M944.9,699.4c-6.9-2.3-9.7-5.6-8.6-10.1c1.2-4.7,7.4-7.2,13.9-5.3c8.3,2.5,13.5,8.5,17.4,16.5
		c-7.1-5-14.2-3.4-21.4-1C945.8,700.2,945.3,700.2,944.9,699.4z"/>
	<path class="st0" d="M979.1,700.5c3.1-6.8,7.5-11.9,13.8-15.1c3.8-2,7.9-2.6,12.1-1.3c3.2,1,5.6,3,5.7,6.7c0,3.8-2,6.2-5.4,7.5
		c-2,0.8-4.3,1.1-6.4,0.5C992.1,696.9,985.5,695.8,979.1,700.5z"/>
	<path class="st6" d="M983.5,720.5c-6.7,0.6-13.3,0.7-20,0C970.2,718.9,976.9,719,983.5,720.5z"/>
	<path class="st0" d="M996.6,640.6c1.4,4,1.4,8,0,11.9C995.9,648.6,995.9,644.6,996.6,640.6z"/>
	<path class="st7" d="M944.9,699.4c0.4,0,0.9,0,1.3,0c0.4,0.2,0.8,0.5,1.2,0.7c-1.2,0.8-2.5,0.7-3.7,0
		C944.1,699.8,944.5,699.6,944.9,699.4z"/>
	<path class="st0" d="M1133.8,656.8c-1.2,9.7-2.8,18.1-7.6,26.2c-6.4-11.1-14.4-21.3-8.8-35.1c0.6-1.4,0.8-2.9,1.1-4.3
		c2.4-9.2,2.8-9.4,11.3-5c12,6.2,16.6,19.2,12.2,35.5c-1.5-5.2-3.2-9.9-5.8-14C1135.7,659.3,1135.1,658.5,1133.8,656.8z"/>
	<path class="st0" d="M821,682.8c-4.2-6-5.9-11.7-7.9-25.6c-4.4,4.9-6.2,10.7-8.1,16.7c-5.5-17.5,1.9-32.9,17.4-37.6
		c3-0.9,4.3-0.3,4.8,2.7c0.1,0.3,0.1,0.7,0.2,1C833.5,662.2,833.5,662.2,821,682.8z"/>
	<path class="st8" d="M990.6,751.7c-1.1,0.3-2.2,0.5-3.3,0.8c0,0.3,0,0.6,0,0.8c7.5,0,14.9,0,22.7,0c-9.1,18.7-61.8,20.8-75.1,0.5
		c7.7,0,15,0,23.1,0c-1.2-2.1-2.7-2-3.9-2.4c-11.3-3.3-22.5-7-32.5-13.7c-4-2.7-7.8-5.7-9.4-10.6c-0.5-1.6-1.1-3.3,0.2-4.7
		c1.4-1.5,3.1-0.6,4.6,0c37.1,15,74.2,14.9,111.2,0c1.5-0.6,3.1-1.6,4.6,0.1c1.3,1.5,0.7,3.1,0.2,4.7c-1.4,4.4-4.8,7.1-8.3,9.7
		c-7.2,5.3-15.4,8.5-23.7,11.5c-1.9,0.7-3.7,1.4-5.6,2.1C994,751.8,992.4,752.2,990.6,751.7z"/>
	<path class="st9" d="M990.6,751.7c1.6-0.4,3.2-0.8,4.8-1.3c0.7,0.4,1.4,0.8,2.9,1.6C995.1,752.7,992.9,753,990.6,751.7z"/>
	<path class="st0" d="M1086.8,779.5c-2.4-1-4.7-1.9-7.1-2.9v16c0.6,0.3,1.2,0.6,1.9,0.9c0.3-1.5,0.7-3.2,1.2-4.9
		C1083.9,784.9,1085.4,781.9,1086.8,779.5z"/>
	<path class="st0" d="M1118.2,592.1h-10.8c-0.8-1-1.5-2.1-2.3-3.1c1.2,0,2.4,0,3.6,0c4,0.1,7.7,0.4,11.3,0.8
		C1119.4,590.6,1118.8,591.4,1118.2,592.1z"/>
	<path class="st0" d="M1016.2,429.2h-14.7c-0.9-0.5-1.9-1-2.8-1.6c3.7-0.2,7.6-0.4,11.7-0.4c4.3,0,8.4,0,12.3,0.2
		C1020.5,428,1018.3,428.6,1016.2,429.2z"/>
	<path class="st0" d="M819.1,609c6.1-4.6,12.2-9.1,18.3-13.7c0.3-2,0.5-3.9,0.8-5.9c-4.6-0.5-10.3-0.5-16.8,0.7
		c-17.6,3.5-28.7,14.6-33,19.5C798.7,609.4,808.9,609.2,819.1,609z"/>
	<path class="st2" d="M1076.8,501.8c8.8,10.5,14.3,22.3,17.2,35.3c1,4.6,1.7,9.1,1.8,13.8c0,1.1,0.6,2.6-0.8,3.1
		c-1.2,0.4-2.2-0.7-2.9-1.6c-3.2-4.1-7.1-7.4-11.7-9.9c-1.3-0.7-2.2-1.5-2.1-3.1c1-11.8-1.1-23.5-1.4-35.3
		C1076.9,503.3,1076.8,502.5,1076.8,501.8z"/>
</g>
</svg>
